<?xml version="1.0" encoding="UTF-8"?>
<svg id="Layer_1" data-name="Layer 1" xmlns="http://www.w3.org/2000/svg" viewBox="0 0 3631.68 3357.49">
  <defs>
    <style>
      .cls-1 {
        fill: #2e66c7;
        stroke-width: 20px;
      }

      .cls-1, .cls-2 {
        stroke: #f2ebe0;
        stroke-miterlimit: 10;
      }

      .cls-3 {
        fill: #6bcbd2;
      }

      .cls-2 {
        fill: #4e85df;
        stroke-width: 6px;
      }
    </style>
  </defs>
  <g>
    <rect class="cls-3" x="3623.59" y="1313.35" width="6.18" height="12.46" transform="translate(-232.54 1296.15) rotate(-19.65)"/>
    <rect class="cls-3" x="3208.65" y="958.81" width="3.77" height="9.6" transform="translate(732.42 3220.83) rotate(-59.04)"/>
    <path class="cls-3" d="M3432.67,1100.81l-9.74-7.46c.1,4.85,5.58,9.92,9.74,7.46Z"/>
    <path class="cls-3" d="M3585.24,1236.34l-4.35,3.65,8.96,4.08c-1.59-4.38-3.53-8.64-4.62-7.73Z"/>
    <path class="cls-2" d="M3281.46,1292.6L1187.47,55.76c-53.11-31.37-101.26-41.75-149.69-48.38-267.8-36.7-488.59,161.6-488.13,437.33l4.25,2521.14c.24,143,100.05,261.86,199.47,321.01,123.44,73.44,283.04,96.42,409.72,21.59l2121.67-1253.17c.38-.14.72-.35,1.01-.61,133.19-79.16,213.63-224.44,214.74-372.71,1.2-160.67-77.07-305.49-219.06-389.36Z"/>
  </g>
  <path class="cls-1" d="M1571.18,2347.07l-84.85-169.11-71.48-134.59-97.59-176.5-104.65-176.98-29.22-47.18-113.85-173.65-80.59-111.57-39.79-50.51-70.34-85.36-47.95-52.22-80.83-76.98c3.3,9.16,9.53,15.35,14.79,23.35l79.35,120.69,137.13,216.62,122.71,209.36,112.1,205.88,75.83,150.6,87.52,184.07,53.39,120.79,60.63,145.32.96,4.6c.27,1.28-2.74,2.59-4.21,2.83l-70.55-59.86-96.97-69.08c-121.97-78.11-210.57-116.85-347.68-162-39.29-12.94-77.72-21.34-118.38-29.68l-184.85-29.15-120.33-19.42c-48.54-7.83-94.08-18.75-141.23-32.79-58.82-17.51-114.85-39.08-167.24-70.98l-64.82-45.48c-42.63-33.69-75.43-77.1-93.85-128.26-6.4-17.77-7.33-34.79-8.16-53.2-3.09-69.17,45.71-118.67,111.71-134.4,26.82-6.39,53.88-9.34,81.9-8.1l61.77,2.74c32.94,1.46,64.22,5.06,97.07-.27,32.46-5.27,63.14-25.96,75.84-56.81,9.44-22.93-.64-48.02-16.76-65.04-21.89-23.11-46.22-40.68-74.38-55.69-45.48-24.23-90.99-44.83-138.47-65.34-43.37-18.73-84.44-38.41-124-63.97l-52.63-39.61c-30.87-26.65-55.56-58.47-71.04-97.16-19.24-48.07-22.23-101.72-9.38-151.94,22.08-86.24,95.65-129.92,182.23-134.27,29-1.46,57.34,3.04,85.63,9.57l62.26,14.38c24.5,5.66,51.15,11.68,75.82,3.23,19.16-6.56,28.94-28.51,28.88-46.96-.08-24.5-9.14-43.85-21.92-63.32l-34.07-51.91-15.36-24.68c-13.1-21.06-20.29-44.52-27.8-68.4-27.25-86.68-15.97-194.76,63.76-247.04,36.71-24.07,85.16-31.82,127.56-17.93,35.08,11.49,65.29,33.04,90.99,58.69,61.65,61.52,105.74,163.29,143.22,243.24,28.7,61.24,62.02,118.7,104.73,170.67,15.12,18.41,32.56,32.52,53.48,42.53,44.12,21.1,94.66,10.31,126.61-26.23,14.02-16.03,26.46-32.2,37.17-50.75l43.94-76.09c29.32-50.77,80.45-98.65,140.78-103.13,35.36-2.63,68.67,10.4,95.08,32.89,53.37,45.47,69.15,104.63,75.15,172.11,4.87,54.8-10.61,124.04-25.36,179.14-26.2,97.9-51.75,193.91-44.55,295.79,2.07,29.29,8.73,56.06,22.52,81.46,12.72,23.45,29.39,45.04,54.28,57.92,35.92,18.58,83.85,12.26,114.77-12.9l37.83-30.77,81.73-84.34,11.71-12.37,33.53-30.41c22.07-20.01,68.92-38.24,98.97-30.06,26.4,7.19,49.02,25.11,63.38,48.57,30.97,50.58,23.33,140.64,17.8,203.01-4.73,53.31-14.59,104.01-25.57,156.17l-13.3,63.17-25.59,110.23c-12.57,54.13-22.46,106.87-27.94,162.21-2.75,27.7-1.55,53.38,3.36,80.41,5.96,32.85,35.37,58.75,69.96,48.53,14.97-4.42,31.96-10.41,43.1-21.94l59.92-62.04c47.36-49.03,91.53-109.43,165.27-126.88,20.62-4.88,41.52-.3,56.93,13.06,34.84,30.2,41.46,68.08,46.27,112.32,5.01,46.04-15.49,135.82-29.91,185.7l-68.34,197.7-39.4,92.59-27.53,56.83-80.05,145.6-90.15,143.96-6.23,9.62-28.54,43.67c-13.72,20.98-28.55,41.13-46.24,60.14-14.66-14.73-13.88-31.61-20.09-48.27l-72.67-194.88-23.13-59.67c-2.67-3.82-7.54-10.19-9.92-15.48l-62.7-139.34-98.85-209.03Z"/>
</svg>